<?xml version="1.0" encoding="UTF-8"?>
<svg id="Ebene_2" data-name="Ebene 2" xmlns="http://www.w3.org/2000/svg" viewBox="0 0 1154.52 184.23">
  <defs>
    <style>
      .cls-1 {
        fill: none;
        stroke: #fff;
        stroke-linecap: round;
        stroke-linejoin: round;
        stroke-width: 26px;
      }
    </style>
  </defs>
  <g id="design">
    <g>
      <path class="cls-1" d="M13,171.23c6.36-22.37,17.26-52.11,36.52-83.93,20.49-33.84,43.26-58.16,60.87-74.3"/>
      <path class="cls-1" d="M88.11,171.23c6.36-22.37,17.26-52.11,36.52-83.93,20.49-33.84,43.26-58.16,60.87-74.3-6.34,16.86-14.21,44.41-14.21,79.11,0,26.44,9.65,62.46,15.92,79.11h0c6.36-22.37,17.26-52.11,36.52-83.93,20.49-33.84,43.26-58.16,60.87-74.3-6.34,16.86-14.21,44.41-14.21,79.11,0,26.44,9.65,62.46,15.92,79.11h0c6.36-22.37,17.26-52.11,36.52-83.93,20.49-33.84,43.26-58.16,60.87-74.3"/>
      <path class="cls-1" d="M856.39,171.23c6.36-22.37,17.26-52.11,36.52-83.93,5.41-8.93,10.97-17.2,16.56-24.83"/>
      <g>
        <path class="cls-1" d="M372.09,171.23c6.36-22.37,17.26-52.11,36.52-83.93,17.11-28.25,35.81-49.87,51.76-65.63"/>
        <line class="cls-1" x1="425.63" y1="13" x2="613.96" y2="13"/>
      </g>
      <g>
        <line class="cls-1" x1="542.34" y1="119.93" x2="461.76" y2="119.93"/>
        <path class="cls-1" d="M522.84,170.61l-79.86.61c6.36-22.68,17.26-52.84,36.52-85.09,3.67-6.14,7.41-11.98,11.19-17.51h81.26"/>
      </g>
      <path class="cls-1" d="M572.95,171.23c6.36-22.37,17.26-52.11,36.52-83.93,20.49-33.84,43.26-58.16,60.87-74.3-6.34,16.86-14.21,44.41-14.21,79.11,0,26.44,9.65,62.46,15.92,79.11h0c6.36-22.37,17.26-52.11,36.52-83.93,20.49-33.84,43.26-58.16,60.87-74.3"/>
      <g>
        <path class="cls-1" d="M922.64,171.23c6.36-22.37,17.26-52.11,36.52-83.93,17.11-28.25,35.81-49.87,51.76-65.63"/>
        <line class="cls-1" x1="941.18" y1="13" x2="1141.52" y2="13"/>
      </g>
      <path class="cls-1" d="M873.93,14.94c-30.31,6.72-41.46,11.6-59.72,21.23-17.73,9.35-37.79,31.5-35.95,45.63.78,5.97,3.36,15.46,23.21,10.83,22.7-5.29,24.96,6.27,25.69,9.68,4.26,20.02-17.8,38.03-41.1,48.3-19.21,8.47-43.77,8.74-64.09,5.67"/>
      <g>
        <path class="cls-1" d="M995.82,171.13c43.9-10.4,88.83-38.8,108.62-70.3,9.5-15.12,17.06-29.78,23.09-43.43"/>
        <path class="cls-1" d="M1040.87,142.5c-3.24-8.79-6.48-21.55-6.61-38.53-.15-18.05,3.26-34.54,6.61-46.57"/>
      </g>
    </g>
  </g>
</svg>